<?xml version="1.0" standalone="no"?>
<svg version="1.0" xmlns="http://www.w3.org/2000/svg"
     width="32" height="32" viewBox="0 0 1280 1280">
  <!-- 添加绿色背景矩形 -->
  <rect width="100%" height="100%" fill="#2E8B57"/>
  
  <g transform="translate(640,904) scale(0.130000,-0.130000) translate(-5339,-5466)"
     fill="#000000" stroke="none">
    <!-- 黑桃路径 -->
    <path d="M5339 10933 c-8 -10 -21 -31 -29 -46 -8 -16 -89 -117 -181 -225 
    -183 -217 -438 -472 -814 -817 -132 -121 -394 -375 -583 -565 -405 -407 
    -504 -528 -641 -787 -46 -87 -108 -202 -138 -257 -67 -122 -93 -199 -144 
    -424 -55 -245 -79 -437 -86 -692 -10 -384 37 -601 185 -853 206 -349 519 
    -574 877 -631 50 -8 125 -20 167 -27 93 -14 150 -9 301 30 331 86 567 248 
    762 525 61 87 70 96 73 73 7 -60 -136 -539 -218 -727 -44 -102 -155 -293 
    -239 -410 -74 -104 -267 -314 -395 -430 -52 -47 -118 -111 -147 -143 l-52 
    -58 40 -41 40 -40 259 65 c443 112 633 137 1054 137 295 0 487 -12 671 -40 
    179 -27 423 -85 469 -111 l39 -22 48 38 c26 21 50 40 52 42 3 2 -92 101 
    -210 221 -251 254 -292 301 -412 482 -193 289 -369 729 -394 979 -8 79 -3 
    77 71 -28 154 -220 345 -359 653 -476 l118 -45 275 7 275 6 176 87 c385 
    189 583 405 701 764 79 242 107 557 74 826 -69 551 -232 974 -551 1430 -48 
    69 -119 163 -158 210 -112 135 -423 437 -862 835 -250 227 -648 616 -828 
    810 -74 79 -156 179 -188 230 -82 128 -84 129 -110 98z"/>
  </g>
</svg>